<svg width="68" height="21" viewBox="0 0 68 21" xmlns="http://www.w3.org/2000/svg"><title>logo</title><path d="M.806 3.32c0-.504.152-.877.458-1.12.306-.243.72-.364 1.242-.364.342 0 .657.045.945.135.288.09.476.153.566.189v7.53A230.959 230.959 0 0 1 9.82 4.346c.63-.558 1.116-.98 1.458-1.269.45-.36.86-.656 1.228-.89.369-.234.814-.351 1.336-.351.576 0 1.044.121 1.403.364.36.243.594.436.702.58-.09.09-.324.302-.702.635-.377.333-.827.733-1.349 1.2-.522.469-1.098.981-1.727 1.54L10.306 7.8a126.92 126.92 0 0 0-1.714 1.538c-.53.486-.967.882-1.309 1.188a86.408 86.408 0 0 1 5.048 4.804 52.858 52.858 0 0 1 4.291 5.02h-3.968a61.774 61.774 0 0 0-1.7-1.93 79.354 79.354 0 0 0-2.146-2.253 57.709 57.709 0 0 0-2.388-2.281 48.615 48.615 0 0 0-2.403-2.038v8.502H.806V3.321zm17.016 4.913c0-.504.144-.869.432-1.094.288-.225.693-.337 1.215-.337.324 0 .62.04.89.121.27.081.45.14.54.176V20.35h-3.077V8.233zM19.361.729c.522 0 .963.18 1.322.54.36.36.54.8.54 1.322s-.18.963-.54 1.323c-.36.36-.8.54-1.322.54s-.963-.18-1.323-.54c-.36-.36-.54-.8-.54-1.323 0-.521.18-.962.54-1.322a1.8 1.8 0 0 1 1.323-.54zm4.196 11.444c0-.9.167-1.705.5-2.416a5.26 5.26 0 0 1 1.376-1.808 6.105 6.105 0 0 1 2.078-1.133c.801-.261 1.678-.392 2.632-.392.954 0 1.835.13 2.645.392.81.26 1.507.638 2.092 1.133a5.116 5.116 0 0 1 1.363 1.808c.324.711.486 1.516.486 2.416v8.178h-3.077v-7.395c0-1.224-.297-2.155-.891-2.794-.594-.638-1.466-.958-2.618-.958-1.17 0-2.047.32-2.632.958-.584.64-.877 1.57-.877 2.794v7.395h-3.077v-8.178zm20.013 8.178a209.829 209.829 0 0 1-2.321-4.413 119.32 119.32 0 0 1-1.809-3.684c-.503-1.08-.89-1.98-1.16-2.699-.27-.72-.405-1.188-.405-1.403 0-.378.126-.698.378-.959.252-.26.639-.391 1.16-.391.378 0 .689.036.932.108.243.072.382.126.418.162a91.665 91.665 0 0 0 2.389 5.79 122.141 122.141 0 0 0 2.01 4.223 40.24 40.24 0 0 0 1.107-2.294c.396-.881.778-1.754 1.147-2.618.369-.864.702-1.65.999-2.362.297-.71.508-1.228.634-1.552.18-.45.396-.805.648-1.066.252-.26.648-.391 1.187-.391.504 0 .914.085 1.229.256.314.171.49.275.526.31-.108.379-.293.896-.553 1.553a49.02 49.02 0 0 1-.945 2.2c-.369.81-.765 1.655-1.188 2.537a226.824 226.824 0 0 1-2.429 4.912c-.369.72-.68 1.313-.931 1.781H43.57zM60.533 6.424c1.044 0 2.02.18 2.928.54.909.36 1.696.86 2.362 1.498a6.91 6.91 0 0 1 1.565 2.267c.378.873.567 1.822.567 2.848a7.021 7.021 0 0 1-.567 2.82 6.91 6.91 0 0 1-1.565 2.267 7.38 7.38 0 0 1-2.362 1.512 7.71 7.71 0 0 1-2.928.553 7.71 7.71 0 0 1-2.929-.553 7.38 7.38 0 0 1-2.361-1.512 6.91 6.91 0 0 1-1.566-2.267 7.021 7.021 0 0 1-.567-2.82c0-1.026.19-1.975.567-2.848a6.91 6.91 0 0 1 1.566-2.267 7.197 7.197 0 0 1 2.361-1.498 7.88 7.88 0 0 1 2.929-.54zm0 11.58a4.25 4.25 0 0 0 1.7-.338c.522-.225.967-.54 1.336-.945.37-.405.657-.873.864-1.403.207-.531.31-1.112.31-1.741 0-.63-.103-1.22-.31-1.768a4.252 4.252 0 0 0-.864-1.417 3.925 3.925 0 0 0-1.336-.931 4.25 4.25 0 0 0-1.7-.338c-.63 0-1.201.113-1.714.338a3.958 3.958 0 0 0-1.323.93 4.252 4.252 0 0 0-.863 1.418 4.97 4.97 0 0 0-.31 1.768c0 .63.103 1.21.31 1.74.207.531.495 1 .863 1.404.37.405.81.72 1.323.945a4.223 4.223 0 0 0 1.714.337z" fill="#FFF" fill-rule="evenodd"/></svg>