<?xml version="1.0" encoding="UTF-8" standalone="no"?>
<svg width="22px" height="23px" viewBox="0 0 22 23" version="1.1" xmlns="http://www.w3.org/2000/svg" xmlns:xlink="http://www.w3.org/1999/xlink">
    <!-- Generator: Sketch 42 (36781) - http://www.bohemiancoding.com/sketch -->
    <title>icon_logout</title>
    <desc>Created with Sketch.</desc>
    <defs></defs>
    <g id="Web-Invoice" stroke="none" stroke-width="1" fill="none" fill-rule="evenodd">
        <g id="Delivery-Info" transform="translate(-307.000000, -79.000000)" fill-rule="nonzero" fill="#FFFFFF">
            <g id="top-bar" transform="translate(0.000000, 65.000000)">
                <path d="M317.039305,14.5732435 L319.04763,14.5732435 L319.04763,23.1759716 L317.039305,23.1759716 L317.039305,14.5732435 Z M322.379974,19.2541464 L323.384217,17.5233428 C326.561792,19.3492421 328.557048,22.6758118 328.557048,26.3417756 C328.557048,31.997792 323.850964,36.5732435 318.057143,36.5732435 C312.263356,36.5732435 307.557048,31.9977324 307.557048,26.3417756 C307.557048,22.6760731 309.552232,19.349592 312.729552,17.5236518 L313.733873,19.2544109 C311.168433,20.728716 309.565372,23.4014274 309.565372,26.3417756 C309.565372,30.8833543 313.362168,34.5746299 318.057143,34.5746299 C322.752137,34.5746299 326.548723,30.8834298 326.548723,26.3417756 C326.548723,23.4011832 324.945614,20.7284152 322.379974,19.2541464 Z" id="icon_logout"></path>
            </g>
        </g>
    </g>
</svg>