<?xml version="1.0" encoding="UTF-8" standalone="no"?>
<svg width="22px" height="18px" viewBox="0 0 22 18" version="1.1" xmlns="http://www.w3.org/2000/svg" xmlns:xlink="http://www.w3.org/1999/xlink">
    <!-- Generator: Sketch 42 (36781) - http://www.bohemiancoding.com/sketch -->
    <title>icon_back</title>
    <desc>Created with Sketch.</desc>
    <defs></defs>
    <g id="Web-Invoice" stroke="none" stroke-width="1" fill="none" fill-rule="evenodd">
        <g id="Delivery-Info" transform="translate(-21.000000, -81.000000)" fill-rule="nonzero" fill="#FFFFFF">
            <g id="top-bar" transform="translate(0.000000, 65.000000)">
                <g id="icon_back" transform="translate(10.000000, 4.000000)">
                    <path d="M14.4355684,20 L20.6216295,13.7006626 C21.0085947,13.3066114 21.0028505,12.6734725 20.6087993,12.2865072 C20.2147481,11.899542 19.5816092,11.9052862 19.1946439,12.2993374 L11.2865072,20.3522843 C10.901115,20.7447337 10.9050188,21.3747542 11.2952448,21.7623975 L19.2952448,29.7094506 C19.6870636,30.0986761 20.320225,30.0965739 20.7094506,29.7047552 C21.0986761,29.3129364 21.0965739,28.679775 20.7047552,28.2905494 L14.3722953,22 L32,22 C32.5522847,22 33,21.5522847 33,21 C33,20.4477153 32.5522847,20 32,20 L14.4355684,20 Z"></path>
                </g>
            </g>
        </g>
    </g>
</svg>