<?xml version="1.0" encoding="UTF-8" standalone="no"?>
<svg width="102px" height="131px" viewBox="0 0 102 131" version="1.1" xmlns="http://www.w3.org/2000/svg" xmlns:xlink="http://www.w3.org/1999/xlink">
    <!-- Generator: Sketch 43 (38999) - http://www.bohemiancoding.com/sketch -->
    <title>illustration_expired</title>
    <desc>Created with Sketch.</desc>
    <defs></defs>
    <g id="Web-Invoice" stroke="none" stroke-width="1" fill="none" fill-rule="evenodd">
        <g id="Success---expired" transform="translate(-138.000000, -149.000000)">
            <g id="main" transform="translate(38.000000, 150.000000)">
                <g id="illustration_expired" transform="translate(101.000000, 0.000000)">
                    <g id="Group">
                        <path d="M34.6582857,9.4267307 C29.5685714,0.638958544 18.296,-2.37194135 9.48,2.70147624 C0.664571429,7.77489383 -2.356,19.0119414 2.73371429,27.7991439 L34.6582857,9.4267307 L34.6582857,9.4267307 Z" id="Shape" fill="#D24A4A" opacity="0.100000001"></path>
                        <path d="M97.2662857,27.7991439 C102.356,19.0113718 99.3354286,7.77489383 90.52,2.70147624 C81.704,-2.37194135 70.4314286,0.638958544 65.3417143,9.42616111 L97.2662857,27.7991439 L97.2662857,27.7991439 Z" id="Shape" fill="#D24A4A" opacity="0.100000001"></path>
                        <ellipse id="Oval" fill="#D24A4A" opacity="0.100000001" cx="49.9382857" cy="70.9018335" rx="48.032" ry="47.8782069"></ellipse>
                        <polyline id="Shape" stroke="#D34949" stroke-width="1.5" points="29.9542857 89.4946815 52.8285714 73.3966768 52.8285714 36.3038254"></polyline>
                        <ellipse id="Oval" stroke="#D34949" stroke-width="1.5" cx="49.9382857" cy="70.9018335" rx="48.032" ry="47.8782069"></ellipse>
                        <path d="M34.6582857,9.4267307 C29.5685714,0.638958544 18.296,-2.37194135 9.48,2.70147624 C0.664571429,7.77489383 -2.356,19.0119414 2.73371429,27.7991439 L34.6582857,9.4267307 L34.6582857,9.4267307 Z" id="Shape" stroke="#D34949" stroke-width="1.5"></path>
                        <path d="M97.2662857,27.7991439 C102.356,19.0113718 99.3354286,7.77489383 90.52,2.70147624 C81.704,-2.37194135 70.4314286,0.638958544 65.3417143,9.42616111 L97.2662857,27.7991439 L97.2662857,27.7991439 Z" id="Shape" stroke="#D34949" stroke-width="1.5"></path>
                        <path d="M78.1874286,110.071443 L89.4885714,129.327304" id="Shape" stroke="#D34949" stroke-width="1.5"></path>
                        <path d="M21.6811429,110.071443 L10.3794286,129.327304" id="Shape" stroke="#D34949" stroke-width="1.5"></path>
                    </g>
                </g>
            </g>
        </g>
    </g>
</svg>