<?xml version="1.0" encoding="UTF-8" standalone="no"?>
<svg width="129px" height="129px" viewBox="0 0 129 129" version="1.1" xmlns="http://www.w3.org/2000/svg" xmlns:xlink="http://www.w3.org/1999/xlink">
    <!-- Generator: Sketch 43 (38999) - http://www.bohemiancoding.com/sketch -->
    <title>illustration_fordelivery</title>
    <desc>Created with Sketch.</desc>
    <defs></defs>
    <g id="Web-Invoice" stroke="none" stroke-width="1" fill="none" fill-rule="evenodd">
        <g id="Success---fordelivery" transform="translate(-134.000000, -164.000000)">
            <g id="main" transform="translate(38.000000, 151.000000)">
                <g id="illustration_fordelivery" transform="translate(89.000000, 0.000000)">
                    <path d="M90.9981134,2 C105.442087,1.9969698 116.00302,27.0090102 115.999999,40.0169075 L108.166709,112.609929 C108.065518,113.956853 106.95392,115 105.614264,115 L76.3819632,115 C75.0423067,115 73.930709,113.953823 73.8363139,112.609929 L66.0000033,40.1896289 C65.9932068,27.0052224 76.55414,1.9969698 90.9981134,2 Z M90.9996237,59.1526296 C96.4931929,59.1526296 100.946611,54.6851239 100.946611,49.1741762 C100.946611,43.6632286 96.4931929,39.1957229 90.9996237,39.1957229 C85.5060546,39.1957229 81.0526369,43.6632286 81.0526369,49.1741762 C81.0526369,54.6851239 85.5060546,59.1526296 90.9996237,59.1526296 Z" id="Combined-Shape" fill="#9AE0E6" opacity="0.100000001" transform="translate(91.000000, 58.500000) rotate(-315.000000) translate(-91.000000, -58.500000) "></path>
                    <path d="M38.6441987,40 C32.9497122,47.1197273 22.2991518,62.5896221 22,79 L42,69.9850341" id="Shape" stroke="#78D5DD" stroke-width="1.5" transform="translate(32.000000, 59.500000) rotate(-315.000000) translate(-32.000000, -59.500000) "></path>
                    <path d="M83.9421563,98 C89.5115082,104.949149 100.688825,120.975002 101,138 L81,128.878434" id="Shape" stroke="#9AE0E6" stroke-width="1.5" transform="translate(91.000000, 118.000000) rotate(-315.000000) translate(-91.000000, -118.000000) "></path>
                    <path d="M90.9981134,2 C76.55414,1.9969698 65.9932068,27.0052224 66.0000033,40.1896289 L73.8363139,112.609929 C73.930709,113.953823 75.0423067,115 76.3819632,115 L105.614264,115 C106.95392,115 108.065518,113.956853 108.166709,112.609929 L115.999999,40.0169075 C116.00302,27.0090102 105.442087,1.9969698 90.9981134,2 L90.9981134,2 Z" id="Shape" stroke="#9AE0E6" stroke-width="1.5" transform="translate(91.000000, 58.500000) rotate(-315.000000) translate(-91.000000, -58.500000) "></path>
                    <ellipse id="Oval" stroke="#9AE0E6" stroke-width="1.5" transform="translate(98.000000, 52.000000) rotate(-315.000000) translate(-98.000000, -52.000000) " cx="98" cy="52" rx="10" ry="10"></ellipse>
                    <path d="M32.9178596,101 C30.8459984,107.27259 28.2747184,112.120555 25.5022943,112.120555 C22.7229869,112.120555 20.155531,107.273347 18.079081,101 C14.9992046,102.45189 13,105.137546 13,109.620456 C13,117.116965 18.5976199,146.996213 25.4946462,147 C32.4046743,146.99697 37.9999998,117.113936 37.9999998,109.624243 C38.0007646,105.137546 35.9946767,102.45189 32.9178596,101 L32.9178596,101 Z" id="Shape" stroke="#9AE0E6" stroke-width="1.5" transform="translate(25.500000, 124.000000) rotate(-315.000000) translate(-25.500000, -124.000000) "></path>
                </g>
            </g>
        </g>
    </g>
</svg>