<?xml version="1.0" encoding="UTF-8" standalone="no"?>
<svg width="111px" height="125px" viewBox="0 0 111 125" version="1.1" xmlns="http://www.w3.org/2000/svg" xmlns:xlink="http://www.w3.org/1999/xlink">
    <!-- Generator: Sketch 43.1 (39012) - http://www.bohemiancoding.com/sketch -->
    <title>illustration_cod_on_process</title>
    <desc>Created with Sketch.</desc>
    <defs></defs>
    <g id="Web-Invoice" stroke="none" stroke-width="1" fill="none" fill-rule="evenodd">
        <g id="Success---fordelivery" transform="translate(-211.000000, -495.000000)">
            <g id="main" transform="translate(38.000000, 151.000000)">
                <g id="illustration_cod_on_process" transform="translate(173.000000, 344.000000)">
                    <rect id="Rectangle-path" fill="#3C82EB" opacity="0.200000003" transform="translate(77.738489, 61.469068) rotate(-15.503869) translate(-77.738489, -61.469068) " x="52.1241398" y="35.6844413" width="51.2286976" height="51.5692527"></rect>
                    <path d="M62.5330048,107.151708 L98.5326524,97.09675" id="Shape" stroke="#3C82EB" stroke-width="1.5"></path>
                    <path d="M19.323419,0.372416667 L46.3578619,98.46825" id="Shape" stroke="#3C82EB" stroke-width="1.5"></path>
                    <rect id="Rectangle-path" stroke="#3C82EB" stroke-width="1.5" transform="translate(77.738489, 61.469068) rotate(-15.503869) translate(-77.738489, -61.469068) " x="52.1241398" y="35.6844413" width="51.2286976" height="51.5692527"></rect>
                    <path d="M23.6131143,15 L0.408833333,15" id="Shape" stroke="#3C82EB" stroke-width="1.5"></path>
                    <polyline id="Shape" stroke="#3C82EB" stroke-width="1.5" points="78.8394429 54.263375 81.9663143 45.7814167 89.0115952 51.3974167"></polyline>
                    <path d="M87.9951333,67.4572917 L81.9663143,45.7814167" id="Shape" stroke="#3C82EB" stroke-width="1.5"></path>
                    <polyline id="Shape" stroke="#3C82EB" stroke-width="1.5" points="63.6221095 58.5522917 66.748981 50.0719583 73.7937238 55.686875"></polyline>
                    <path d="M72.7756476,71.7521667 L66.748981,50.0719583" id="Shape" stroke="#3C82EB" stroke-width="1.5"></path>
                    <path d="M70.5651524,79.528875 L93.8996524,72.9519583" id="Shape" stroke="#3C82EB" stroke-width="1.5"></path>
                    <ellipse id="Oval" stroke="#3C82EB" stroke-width="1.5" cx="50.2590524" cy="110.72075" rx="12.7765333" ry="12.8613333"></ellipse>
                </g>
            </g>
        </g>
    </g>
</svg>