<?xml version="1.0" encoding="UTF-8" standalone="no"?>
<svg width="114px" height="89px" viewBox="0 0 114 89" version="1.1" xmlns="http://www.w3.org/2000/svg" xmlns:xlink="http://www.w3.org/1999/xlink">
    <!-- Generator: Sketch 43.1 (39012) - http://www.bohemiancoding.com/sketch -->
    <title>illustration_on_process</title>
    <desc>Created with Sketch.</desc>
    <defs></defs>
    <g id="Web-Invoice" stroke="none" stroke-width="1" fill="none" fill-rule="evenodd">
        <g id="Success---fordelivery" transform="translate(-60.000000, -513.000000)">
            <g id="main" transform="translate(38.000000, 151.000000)">
                <g id="illustration_on_process" transform="translate(22.000000, 363.000000)">
                    <polygon id="Path-2" fill="#3C82EB" opacity="0.200000003" points="0.91030617 32.4487544 36.9391553 50.6487348 64.6045014 39.2408613 64.6045014 74.8286158 89.7267303 64.3663515 89.7267303 28.8816484 113.424687 19.1097377 76.9667086 0.210046519"></polygon>
                    <polyline id="Shape" stroke="#3C82EB" stroke-width="1.5" points="64.4235 51.0825 37.073 62.5335 0.672 44.2595"></polyline>
                    <path d="M113.664,30.695 L89.5465,40.727" id="Shape" stroke="#3C82EB" stroke-width="1.5"></path>
                    <polyline id="Shape" stroke="#3C82EB" stroke-width="1.5" points="113.664 18.8925 76.7515 0.5195 0.672 32.457"></polyline>
                    <path d="M89.5465,29.0675 L113.664,18.8925" id="Shape" stroke="#3C82EB" stroke-width="1.5"></path>
                    <polyline id="Shape" stroke="#3C82EB" stroke-width="1.5" points="0.672 32.457 37.073 50.731 64.422 39.3615"></polyline>
                    <polyline id="Shape" stroke="#3C82EB" stroke-width="1.5" points="64.422 63.2945 37.073 74.6375 0.672 56.3635"></polyline>
                    <path d="M113.664,42.799 L89.5465,52.901" id="Shape" stroke="#3C82EB" stroke-width="1.5"></path>
                    <polyline id="Shape" stroke="#3C82EB" stroke-width="1.5" points="113.664 54.426 37.073 86.2645 0.672 67.9905"></polyline>
                    <polyline id="Shape" stroke="#3C82EB" stroke-width="1.5" points="64.422 74.8955 64.422 39.362 27.6885 21.1155"></polyline>
                    <polyline id="Shape" stroke="#3C82EB" stroke-width="1.5" points="53.5345 10.267 89.5465 29.0675 89.5465 64.4515"></polyline>
                    <path d="M62.036,30.525 C63.7615,31.191 66.264,30.2775 66.8035,28.457 C67.331,26.6765 67.0225,24.8725 65.002,23.862 C62.9815,22.8515 60.6185,23.4005 59.195,24.651 C57.672,25.923 55.453,26.482 53.4325,25.4715 C51.412,24.461 51.0475,22.652 51.8785,20.991 C52.438,19.8725 53.6685,19.2685 55.03,19.3015" id="Shape" stroke="#3C82EB" stroke-width="1.5"></path>
                    <path d="M50.3895,19.0925 L52.525,20.161" id="Shape" stroke="#3C82EB" stroke-width="1.5"></path>
                    <path d="M66.5085,29.0675 L68.4915,30.0595" id="Shape" stroke="#3C82EB" stroke-width="1.5"></path>
                </g>
            </g>
        </g>
    </g>
</svg>