<?xml version="1.0" encoding="UTF-8" standalone="no"?>
<svg width="128px" height="128px" viewBox="0 0 128 128" version="1.1" xmlns="http://www.w3.org/2000/svg" xmlns:xlink="http://www.w3.org/1999/xlink">
    <!-- Generator: Sketch 43.1 (39012) - http://www.bohemiancoding.com/sketch -->
    <title>illustration_cancelled</title>
    <desc>Created with Sketch.</desc>
    <defs></defs>
    <g id="Web-Invoice" stroke="none" stroke-width="1" fill="none" fill-rule="evenodd">
        <g id="Success---expired" transform="translate(-164.000000, -450.000000)">
            <g id="main" transform="translate(38.000000, 150.000000)">
                <g id="illustration_cancelled" transform="translate(127.000000, 301.000000)">
                    <path d="M124.024708,35.929125 L90.0638333,1.98775 C89.2475417,1.17145833 88.1441667,0.714833333 86.9936667,0.714833333 L38.9797917,0.714833333 C37.8292917,0.714833333 36.7232083,1.172 35.909625,1.98775 L1.963375,35.9318333 C1.14708333,36.7454167 0.690458333,37.8515 0.690458333,39.002 L0.690458333,87.0234583 C0.690458333,88.1739583 1.147625,89.2800417 1.96120833,90.093625 L35.909625,124.046917 C36.7232083,124.863208 37.8292917,125.320375 38.9797917,125.320375 L86.9936667,125.320375 C88.1463333,125.320375 89.2475417,124.863208 90.0638333,124.046917 L124.030125,90.0957917 C124.841,89.2795 125.298708,88.1739583 125.298708,87.0229167 L125.298708,39.0014583 C125.298167,37.8515 124.841,36.744875 124.024708,35.929125 L124.024708,35.929125 Z" id="Shape" fill="#D24A4A" opacity="0.100000001"></path>
                    <path d="M124.024708,35.929125 L90.0638333,1.98775 C89.2475417,1.17145833 88.1441667,0.714833333 86.9936667,0.714833333 L38.9797917,0.714833333 C37.8292917,0.714833333 36.7232083,1.172 35.909625,1.98775 L1.963375,35.9318333 C1.14708333,36.7454167 0.690458333,37.8515 0.690458333,39.002 L0.690458333,87.0234583 C0.690458333,88.1739583 1.147625,89.2800417 1.96120833,90.093625 L35.909625,124.046917 C36.7232083,124.863208 37.8292917,125.320375 38.9797917,125.320375 L86.9936667,125.320375 C88.1463333,125.320375 89.2475417,124.863208 90.0638333,124.046917 L124.030125,90.0957917 C124.841,89.2795 125.298708,88.1739583 125.298708,87.0229167 L125.298708,39.0014583 C125.298167,37.8515 124.841,36.744875 124.024708,35.929125 L124.024708,35.929125 Z" id="Shape" stroke="#D24A4A" stroke-width="1.5"></path>
                    <path d="M37.4880417,38.638 L88.5005833,89.6510833" id="Shape" stroke="#D24A4A" stroke-width="1.5"></path>
                    <path d="M37.4880417,89.6510833 L88.5005833,38.638" id="Shape" stroke="#D24A4A" stroke-width="1.5"></path>
                </g>
            </g>
        </g>
    </g>
</svg>