<?xml version="1.0" encoding="UTF-8" standalone="no"?>
<svg width="191px" height="86px" viewBox="0 0 191 86" version="1.1" xmlns="http://www.w3.org/2000/svg" xmlns:xlink="http://www.w3.org/1999/xlink">
    <!-- Generator: Sketch 42 (36781) - http://www.bohemiancoding.com/sketch -->
    <title>illustration_404</title>
    <desc>Created with Sketch.</desc>
    <defs>
        <linearGradient x1="50%" y1="0%" x2="50%" y2="100%" id="linearGradient-1">
            <stop stop-color="#40FFCD" stop-opacity="0" offset="0%"></stop>
            <stop stop-color="#3ED9C5" offset="45.0992506%"></stop>
            <stop stop-color="#4C4BD3" offset="70.7310268%"></stop>
            <stop stop-color="#3A3DC9" stop-opacity="0" offset="100%"></stop>
        </linearGradient>
        <linearGradient x1="50%" y1="0%" x2="50%" y2="100%" id="linearGradient-2">
            <stop stop-color="#4AC6FF" offset="0%"></stop>
            <stop stop-color="#487BFF" offset="100%"></stop>
        </linearGradient>
    </defs>
    <g id="Web-Invoice" stroke="none" stroke-width="1" fill="none" fill-rule="evenodd">
        <g id="404-copy" transform="translate(-92.000000, -220.000000)" stroke-width="2">
            <g id="illustration_404" transform="translate(93.000000, 220.000000)">
                <path d="M31.2098982,5.00434575 C32.1426125,3.46177985 33.2726147,2.34971414 34.5999389,1.66811525 C35.927263,0.986516363 37.34425,0.645722032 38.8509423,0.645722032 C39.7119093,0.645722032 40.5459586,0.771277838 41.3531151,1.02239322 C42.1602717,1.2735086 42.8777335,1.66811256 43.5055219,2.20621694 C44.1333104,2.74432133 44.6265653,3.43487826 44.9853016,4.27790846 C45.3440378,5.12093866 45.5234033,6.11641684 45.5234033,7.26437286 L45.5234033,53.2720676 L53.8101693,53.2720676 C54.993999,53.2720676 55.8818579,53.6397668 56.4737727,54.3751761 C57.0656875,55.1105854 57.3616405,55.9266982 57.3616405,56.8235388 C57.3616405,57.7203795 57.0656875,58.5364922 56.4737727,59.2719015 C55.8818579,60.0073109 54.993999,60.37501 53.8101693,60.37501 L45.4695931,60.37501 L45.4695931,73.07421 C45.4695931,73.7916825 45.335069,74.4194615 45.0660168,74.9575659 C44.7969646,75.4956703 44.447202,75.9440839 44.0167185,76.3028201 C43.586235,76.6615564 43.1019483,76.9306045 42.5638439,77.1099727 C42.0257396,77.2893408 41.4697067,77.3790235 40.8957287,77.3790235 C40.3217507,77.3790235 39.7567496,77.2893408 39.2007084,77.1099727 C38.6446672,76.9306045 38.1514122,76.6615564 37.7209287,76.3028201 C37.2904452,75.9440839 36.9317143,75.4956703 36.6447253,74.9575659 C36.3577363,74.4194615 36.214244,73.7916825 36.214244,73.07421 L36.214244,60.37501 L5.16577626,60.37501 C3.58733673,60.37501 2.33177867,59.8638185 1.3990644,58.8414202 C0.466350137,57.8190218 0,56.6262417 0,55.2630439 C0,54.7249395 0.071746175,54.1599384 0.215240677,53.5680236 C0.35873518,52.9761088 0.627783336,52.4111076 1.02239322,51.8730032 L31.2098982,5.00434575 Z M8.23295591,53.2720676 L36.214244,53.2720676 L36.214244,9.41677963 L8.23295591,53.2720676 Z M93.4651894,7.64104405 C90.9540356,7.64104405 88.8106186,8.12533073 87.0348741,9.09391862 C85.2591297,10.0625065 83.7614283,11.3629059 82.541725,12.9951559 C81.3220217,14.6274059 80.3444801,16.510743 79.6090708,18.6452237 C78.8736614,20.7797044 78.3176286,22.9858993 77.9409555,25.2638745 C77.5642824,27.5418497 77.3131708,29.8287591 77.1876131,32.1246711 C77.0620555,34.4205831 76.9992776,36.8599531 76.9992776,39.4428541 C76.9992776,41.7387662 77.0620555,44.043612 77.1876131,46.3574609 C77.3131708,48.6713097 77.5642824,50.9761556 77.9409555,53.2720676 C78.3176286,55.5679797 78.8736614,57.7741746 79.6090708,59.8907185 C80.3444801,62.0072624 81.3220217,63.8816312 82.541725,65.5138812 C83.7614283,67.1461311 85.2680979,68.4554988 87.0617792,69.4420235 C88.8554605,70.4285482 90.9899092,70.9218032 93.4651894,70.9218032 C95.9763432,70.9218032 98.1287284,70.4285482 99.9224097,69.4420235 C101.716091,68.4554988 103.222761,67.1461311 104.442464,65.5138812 C105.662167,63.8816312 106.639709,62.0072624 107.375118,59.8907185 C108.110527,57.7741746 108.675529,55.5679797 109.070138,53.2720676 C109.464748,50.9761556 109.724828,48.6713097 109.850386,46.3574609 C109.975944,44.043612 110.038722,41.7387662 110.038722,39.4428541 C110.038722,36.8599531 109.975944,34.4205831 109.850386,32.1246711 C109.724828,29.8287591 109.464748,27.5418497 109.070138,25.2638745 C108.675529,22.9858993 108.110527,20.7797044 107.375118,18.6452237 C106.639709,16.510743 105.662167,14.6274059 104.442464,12.9951559 C103.222761,11.3629059 101.716091,10.0625065 99.9224097,9.09391862 C98.1287284,8.12533073 95.9763432,7.64104405 93.4651894,7.64104405 Z M93.4651894,0 C97.0166783,0 100.128669,0.502223225 102.801254,1.50668474 C105.473839,2.51114626 107.787653,3.91019667 109.742766,5.70387795 C111.697878,7.49755923 113.330104,9.61407139 114.639491,12.0534779 C115.948878,14.4928845 116.989198,17.1385247 117.760481,19.9904779 C118.531764,22.8424311 119.078828,25.8468022 119.401691,29.0036813 C119.724554,32.1605603 119.885983,35.6402498 119.885983,39.4428541 C119.885983,42.9943431 119.724554,46.3484767 119.401691,49.5053558 C119.078828,52.6622348 118.531764,55.6666059 117.760481,58.5185592 C116.989198,61.3705124 115.948878,64.0251209 114.639491,66.4824642 C113.330104,68.9398076 111.697878,71.0563197 109.742766,72.8320642 C107.787653,74.6078087 105.473839,76.0068591 102.801254,77.0292574 C100.128669,78.0516557 97.0166783,78.5628472 93.4651894,78.5628472 C89.9137004,78.5628472 86.8017101,78.0516557 84.129125,77.0292574 C81.4565399,76.0068591 79.1427257,74.6078087 77.1876131,72.8320642 C75.2325006,71.0563197 73.6002751,68.9398076 72.2908877,66.4824642 C70.9815004,64.0251209 69.9411809,61.3705124 69.1698979,58.5185592 C68.398615,55.6666059 67.8515504,52.6622348 67.5286878,49.5053558 C67.2058251,46.3484767 67.0443962,42.9943431 67.0443962,39.4428541 C67.0443962,35.6402498 67.2058251,32.1605603 67.5286878,29.0036813 C67.8515504,25.8468022 68.398615,22.8424311 69.1698979,19.9904779 C69.9411809,17.1385247 70.9815004,14.4928845 72.2908877,12.0534779 C73.6002751,9.61407139 75.2325006,7.49755923 77.1876131,5.70387795 C79.1427257,3.91019667 81.4655082,2.51114626 84.1560301,1.50668474 C86.846552,0.502223225 89.9495741,0 93.4651894,0 Z M159.379572,5.00434575 C160.312286,3.46177985 161.442289,2.34971414 162.769613,1.66811525 C164.096937,0.986516363 165.513924,0.645722032 167.020616,0.645722032 C167.881583,0.645722032 168.715632,0.771277838 169.522789,1.02239322 C170.329946,1.2735086 171.047407,1.66811256 171.675196,2.20621694 C172.302984,2.74432133 172.796239,3.43487826 173.154975,4.27790846 C173.513712,5.12093866 173.693077,6.11641684 173.693077,7.26437286 L173.693077,53.2720676 L181.979843,53.2720676 C183.163673,53.2720676 184.051532,53.6397668 184.643447,54.3751761 C185.235361,55.1105854 185.531314,55.9266982 185.531314,56.8235388 C185.531314,57.7203795 185.235361,58.5364922 184.643447,59.2719015 C184.051532,60.0073109 183.163673,60.37501 181.979843,60.37501 L173.639267,60.37501 L173.639267,73.07421 C173.639267,73.7916825 173.504743,74.4194615 173.235691,74.9575659 C172.966638,75.4956703 172.616876,75.9440839 172.186392,76.3028201 C171.755909,76.6615564 171.271622,76.9306045 170.733518,77.1099727 C170.195413,77.2893408 169.639381,77.3790235 169.065403,77.3790235 C168.491425,77.3790235 167.926423,77.2893408 167.370382,77.1099727 C166.814341,76.9306045 166.321086,76.6615564 165.890603,76.3028201 C165.460119,75.9440839 165.101388,75.4956703 164.814399,74.9575659 C164.52741,74.4194615 164.383918,73.7916825 164.383918,73.07421 L164.383918,60.37501 L133.33545,60.37501 C131.757011,60.37501 130.501452,59.8638185 129.568738,58.8414202 C128.636024,57.8190218 128.169674,56.6262417 128.169674,55.2630439 C128.169674,54.7249395 128.24142,54.1599384 128.384915,53.5680236 C128.528409,52.9761088 128.797457,52.4111076 129.192067,51.8730032 L159.379572,5.00434575 Z M136.40263,53.2720676 L164.383918,53.2720676 L164.383918,9.41677963 L136.40263,53.2720676 Z" id="404" stroke="url(#linearGradient-1)" opacity="0.5"></path>
                <path d="M34.2098982,11.0043457 C35.1426125,9.46177985 36.2726147,8.34971414 37.5999389,7.66811525 C38.927263,6.98651636 40.34425,6.64572203 41.8509423,6.64572203 C42.7119093,6.64572203 43.5459586,6.77127784 44.3531151,7.02239322 C45.1602717,7.2735086 45.8777335,7.66811256 46.5055219,8.20621694 C47.1333104,8.74432133 47.6265653,9.43487826 47.9853016,10.2779085 C48.3440378,11.1209387 48.5234033,12.1164168 48.5234033,13.2643729 L48.5234033,59.2720676 L56.8101693,59.2720676 C57.993999,59.2720676 58.8818579,59.6397668 59.4737727,60.3751761 C60.0656875,61.1105854 60.3616405,61.9266982 60.3616405,62.8235388 C60.3616405,63.7203795 60.0656875,64.5364922 59.4737727,65.2719015 C58.8818579,66.0073109 57.993999,66.37501 56.8101693,66.37501 L48.4695931,66.37501 L48.4695931,79.07421 C48.4695931,79.7916825 48.335069,80.4194615 48.0660168,80.9575659 C47.7969646,81.4956703 47.447202,81.9440839 47.0167185,82.3028201 C46.586235,82.6615564 46.1019483,82.9306045 45.5638439,83.1099727 C45.0257396,83.2893408 44.4697067,83.3790235 43.8957287,83.3790235 C43.3217507,83.3790235 42.7567496,83.2893408 42.2007084,83.1099727 C41.6446672,82.9306045 41.1514122,82.6615564 40.7209287,82.3028201 C40.2904452,81.9440839 39.9317143,81.4956703 39.6447253,80.9575659 C39.3577363,80.4194615 39.214244,79.7916825 39.214244,79.07421 L39.214244,66.37501 L8.16577626,66.37501 C6.58733673,66.37501 5.33177867,65.8638185 4.3990644,64.8414202 C3.46635014,63.8190218 3,62.6262417 3,61.2630439 C3,60.7249395 3.07174617,60.1599384 3.21524068,59.5680236 C3.35873518,58.9761088 3.62778334,58.4111076 4.02239322,57.8730032 L34.2098982,11.0043457 Z M11.2329559,59.2720676 L39.214244,59.2720676 L39.214244,15.4167796 L11.2329559,59.2720676 Z M96.4651894,13.641044 C93.9540356,13.641044 91.8106186,14.1253307 90.0348741,15.0939186 C88.2591297,16.0625065 86.7614283,17.3629059 85.541725,18.9951559 C84.3220217,20.6274059 83.3444801,22.510743 82.6090708,24.6452237 C81.8736614,26.7797044 81.3176286,28.9858993 80.9409555,31.2638745 C80.5642824,33.5418497 80.3131708,35.8287591 80.1876131,38.1246711 C80.0620555,40.4205831 79.9992776,42.8599531 79.9992776,45.4428541 C79.9992776,47.7387662 80.0620555,50.043612 80.1876131,52.3574609 C80.3131708,54.6713097 80.5642824,56.9761556 80.9409555,59.2720676 C81.3176286,61.5679797 81.8736614,63.7741746 82.6090708,65.8907185 C83.3444801,68.0072624 84.3220217,69.8816312 85.541725,71.5138812 C86.7614283,73.1461311 88.2680979,74.4554988 90.0617792,75.4420235 C91.8554605,76.4285482 93.9899092,76.9218032 96.4651894,76.9218032 C98.9763432,76.9218032 101.128728,76.4285482 102.92241,75.4420235 C104.716091,74.4554988 106.222761,73.1461311 107.442464,71.5138812 C108.662167,69.8816312 109.639709,68.0072624 110.375118,65.8907185 C111.110527,63.7741746 111.675529,61.5679797 112.070138,59.2720676 C112.464748,56.9761556 112.724828,54.6713097 112.850386,52.3574609 C112.975944,50.043612 113.038722,47.7387662 113.038722,45.4428541 C113.038722,42.8599531 112.975944,40.4205831 112.850386,38.1246711 C112.724828,35.8287591 112.464748,33.5418497 112.070138,31.2638745 C111.675529,28.9858993 111.110527,26.7797044 110.375118,24.6452237 C109.639709,22.510743 108.662167,20.6274059 107.442464,18.9951559 C106.222761,17.3629059 104.716091,16.0625065 102.92241,15.0939186 C101.128728,14.1253307 98.9763432,13.641044 96.4651894,13.641044 Z M96.4651894,6 C100.016678,6 103.128669,6.50222322 105.801254,7.50668474 C108.473839,8.51114626 110.787653,9.91019667 112.742766,11.703878 C114.697878,13.4975592 116.330104,15.6140714 117.639491,18.0534779 C118.948878,20.4928845 119.989198,23.1385247 120.760481,25.9904779 C121.531764,28.8424311 122.078828,31.8468022 122.401691,35.0036813 C122.724554,38.1605603 122.885983,41.6402498 122.885983,45.4428541 C122.885983,48.9943431 122.724554,52.3484767 122.401691,55.5053558 C122.078828,58.6622348 121.531764,61.6666059 120.760481,64.5185592 C119.989198,67.3705124 118.948878,70.0251209 117.639491,72.4824642 C116.330104,74.9398076 114.697878,77.0563197 112.742766,78.8320642 C110.787653,80.6078087 108.473839,82.0068591 105.801254,83.0292574 C103.128669,84.0516557 100.016678,84.5628472 96.4651894,84.5628472 C92.9137004,84.5628472 89.8017101,84.0516557 87.129125,83.0292574 C84.4565399,82.0068591 82.1427257,80.6078087 80.1876131,78.8320642 C78.2325006,77.0563197 76.6002751,74.9398076 75.2908877,72.4824642 C73.9815004,70.0251209 72.9411809,67.3705124 72.1698979,64.5185592 C71.398615,61.6666059 70.8515504,58.6622348 70.5286878,55.5053558 C70.2058251,52.3484767 70.0443962,48.9943431 70.0443962,45.4428541 C70.0443962,41.6402498 70.2058251,38.1605603 70.5286878,35.0036813 C70.8515504,31.8468022 71.398615,28.8424311 72.1698979,25.9904779 C72.9411809,23.1385247 73.9815004,20.4928845 75.2908877,18.0534779 C76.6002751,15.6140714 78.2325006,13.4975592 80.1876131,11.703878 C82.1427257,9.91019667 84.4655082,8.51114626 87.1560301,7.50668474 C89.846552,6.50222322 92.9495741,6 96.4651894,6 Z M162.379572,11.0043457 C163.312286,9.46177985 164.442289,8.34971414 165.769613,7.66811525 C167.096937,6.98651636 168.513924,6.64572203 170.020616,6.64572203 C170.881583,6.64572203 171.715632,6.77127784 172.522789,7.02239322 C173.329946,7.2735086 174.047407,7.66811256 174.675196,8.20621694 C175.302984,8.74432133 175.796239,9.43487826 176.154975,10.2779085 C176.513712,11.1209387 176.693077,12.1164168 176.693077,13.2643729 L176.693077,59.2720676 L184.979843,59.2720676 C186.163673,59.2720676 187.051532,59.6397668 187.643447,60.3751761 C188.235361,61.1105854 188.531314,61.9266982 188.531314,62.8235388 C188.531314,63.7203795 188.235361,64.5364922 187.643447,65.2719015 C187.051532,66.0073109 186.163673,66.37501 184.979843,66.37501 L176.639267,66.37501 L176.639267,79.07421 C176.639267,79.7916825 176.504743,80.4194615 176.235691,80.9575659 C175.966638,81.4956703 175.616876,81.9440839 175.186392,82.3028201 C174.755909,82.6615564 174.271622,82.9306045 173.733518,83.1099727 C173.195413,83.2893408 172.639381,83.3790235 172.065403,83.3790235 C171.491425,83.3790235 170.926423,83.2893408 170.370382,83.1099727 C169.814341,82.9306045 169.321086,82.6615564 168.890603,82.3028201 C168.460119,81.9440839 168.101388,81.4956703 167.814399,80.9575659 C167.52741,80.4194615 167.383918,79.7916825 167.383918,79.07421 L167.383918,66.37501 L136.33545,66.37501 C134.757011,66.37501 133.501452,65.8638185 132.568738,64.8414202 C131.636024,63.8190218 131.169674,62.6262417 131.169674,61.2630439 C131.169674,60.7249395 131.24142,60.1599384 131.384915,59.5680236 C131.528409,58.9761088 131.797457,58.4111076 132.192067,57.8730032 L162.379572,11.0043457 Z M139.40263,59.2720676 L167.383918,59.2720676 L167.383918,15.4167796 L139.40263,59.2720676 Z" id="404-copy" stroke="url(#linearGradient-2)"></path>
            </g>
        </g>
    </g>
</svg>