<?xml version="1.0" encoding="UTF-8" standalone="no"?>
<svg width="68px" height="21px" viewBox="0 0 68 21" version="1.1" xmlns="http://www.w3.org/2000/svg" xmlns:xlink="http://www.w3.org/1999/xlink">
    <!-- Generator: Sketch 42 (36781) - http://www.bohemiancoding.com/sketch -->
    <title>logo</title>
    <desc>Created with Sketch.</desc>
    <defs></defs>
    <g id="Web-Invoice" stroke="none" stroke-width="1" fill="none" fill-rule="evenodd">
        <g id="Delivery-Info" transform="translate(-153.000000, -79.000000)" fill="#FFFFFF">
            <g id="top-bar" transform="translate(0.000000, 65.000000)">
                <path d="M153.80555,17.3202287 C153.80555,16.8164025 153.958495,16.4430369 154.264389,16.2001207 C154.570284,15.9572045 154.984135,15.8357482 155.505955,15.8357482 C155.847837,15.8357482 156.162724,15.880732 156.450624,15.970701 C156.738525,16.06067 156.927457,16.1236473 157.017426,16.1596349 L157.017426,23.6899992 C157.467271,23.2581482 158.034067,22.7228409 158.717831,22.0840613 C159.401595,21.4452817 160.098844,20.8020133 160.809599,20.1542368 C161.520353,19.5064602 162.190612,18.9036772 162.820395,18.3458697 C163.450178,17.7880621 163.936003,17.3652144 164.277885,17.0773137 C164.72773,16.7174378 165.137082,16.4205447 165.505955,16.1866254 C165.874828,15.9527061 166.320167,15.8357482 166.841987,15.8357482 C167.417789,15.8357482 167.88562,15.9572045 168.245496,16.2001207 C168.605372,16.4430369 168.839288,16.6364673 168.94725,16.7804176 C168.857281,16.8703866 168.623366,17.0818104 168.245496,17.4146956 C167.867626,17.7475808 167.417788,18.1479366 166.895968,18.6157752 C166.374148,19.0836138 165.798356,19.5964292 165.168573,20.1542368 C164.53879,20.7120443 163.918014,21.2608467 163.306225,21.8006605 C162.694436,22.3404743 162.123142,22.8532897 161.592325,23.339122 C161.061508,23.8249544 160.625165,24.2208119 160.283283,24.5267064 C162.082662,26.1101601 163.765056,27.7115836 165.330516,29.3310249 C166.895976,30.9504662 168.326461,32.6238637 169.622014,34.3512678 L165.654403,34.3512678 C165.186564,33.7934602 164.619768,33.1501918 163.953998,32.4214432 C163.288228,31.6926947 162.572985,30.9414651 161.808249,30.167732 C161.043513,29.393999 160.2473,28.6337727 159.419585,27.8870303 C158.591871,27.1402879 157.791159,26.4610324 157.017426,25.8492435 L157.017426,34.3512678 L153.80555,34.3512678 L153.80555,17.3202287 Z M170.822405,22.2325094 C170.822405,21.7286832 170.966353,21.3643144 171.254253,21.139392 C171.542154,20.9144695 171.947008,20.80201 172.468828,20.80201 C172.792717,20.80201 173.08961,20.8424955 173.359517,20.9234675 C173.629423,21.0044396 173.809359,21.0629185 173.899328,21.0989061 L173.899328,34.3512678 L170.822405,34.3512678 L170.822405,22.2325094 Z M172.360866,14.7291355 C172.882686,14.7291355 173.323527,14.9090708 173.683403,15.2689466 C174.043279,15.6288225 174.223214,16.0696637 174.223214,16.5914837 C174.223214,17.1133037 174.043279,17.554145 173.683403,17.9140208 C173.323527,18.2738967 172.882686,18.4538319 172.360866,18.4538319 C171.839046,18.4538319 171.398205,18.2738967 171.038329,17.9140208 C170.678453,17.554145 170.498518,17.1133037 170.498518,16.5914837 C170.498518,16.0696637 170.678453,15.6288225 171.038329,15.2689466 C171.398205,14.9090708 171.839046,14.7291355 172.360866,14.7291355 L172.360866,14.7291355 Z M176.557208,26.1731301 C176.557208,25.2734405 176.723648,24.4682304 177.056533,23.7574756 C177.389418,23.0467208 177.848253,22.4439378 178.433051,21.9491086 C179.017849,21.4542793 179.7106,21.0764153 180.511324,20.8155053 C181.312048,20.5545953 182.189232,20.4241423 183.142903,20.4241423 C184.096574,20.4241423 184.978256,20.5545953 185.787977,20.8155053 C186.597698,21.0764153 187.294947,21.4542793 187.879745,21.9491086 C188.464543,22.4439378 188.91888,23.0467208 189.242768,23.7574756 C189.566656,24.4682304 189.728598,25.2734405 189.728598,26.1731301 L189.728598,34.3512678 L186.651675,34.3512678 L186.651675,26.9558562 C186.651675,25.7322783 186.354782,24.8011135 185.760986,24.1623339 C185.167191,23.5235543 184.294505,23.2041693 183.142903,23.2041693 C181.973306,23.2041693 181.096122,23.5235543 180.511324,24.1623339 C179.926526,24.8011135 179.634131,25.7322783 179.634131,26.9558562 L179.634131,34.3512678 L176.557208,34.3512678 L176.557208,26.1731301 Z M196.570014,34.3512678 C195.724305,32.7858079 194.950584,31.3148374 194.248826,29.9383123 C193.547068,28.5617872 192.944285,27.3337293 192.440459,26.2541018 C191.936633,25.1744743 191.549772,24.2747982 191.279865,23.5550465 C191.009958,22.8352948 190.875007,22.3674632 190.875007,22.1515377 C190.875007,21.7736681 191.000962,21.454283 191.252875,21.1933731 C191.504788,20.9324631 191.891649,20.80201 192.413469,20.80201 C192.791338,20.80201 193.101726,20.8379971 193.344643,20.9099722 C193.587559,20.9819474 193.727009,21.035928 193.762996,21.0719156 C194.122872,22.0435803 194.509733,23.0287257 194.92359,24.0273812 C195.337447,25.0260366 195.7468,25.9706965 196.15166,26.8613893 C196.55652,27.752082 196.934384,28.5617905 197.285263,29.290539 C197.636142,30.0192876 197.928537,30.6175722 198.162456,31.0854108 C198.504338,30.4376343 198.873206,29.6729096 199.269069,28.7912138 C199.664932,27.909518 200.047295,27.0368322 200.416168,26.1731301 C200.78504,25.3094281 201.11792,24.5222115 201.414818,23.8114567 C201.711716,23.1007019 201.923139,22.5833882 202.049096,22.2594999 C202.229034,21.8096551 202.444956,21.454283 202.696869,21.1933731 C202.948782,20.9324631 203.34464,20.80201 203.884454,20.80201 C204.38828,20.80201 204.797632,20.8874793 205.112524,21.0584203 C205.427415,21.2293613 205.602852,21.3328241 205.63884,21.3688117 C205.530877,21.7466813 205.346443,22.2639951 205.085533,22.9207685 C204.824623,23.5775419 204.509737,24.3107779 204.140864,25.1204986 C203.771991,25.9302192 203.376134,26.7759148 202.95328,27.6576106 C202.530425,28.5393064 202.112076,29.3984971 201.698219,30.2352084 C201.284362,31.0719198 200.893003,31.8501396 200.52413,32.5698913 C200.155257,33.289643 199.844869,33.8834292 199.592956,34.3512678 L196.570014,34.3512678 Z M213.532887,20.4241423 C214.576527,20.4241423 215.552676,20.6040775 216.461362,20.9639534 C217.370049,21.3238292 218.157265,21.8231494 218.823036,22.4619291 C219.488806,23.1007087 220.010618,23.8564366 220.388488,24.7291355 C220.766357,25.6018345 220.955289,26.5509928 220.955289,27.5766389 C220.955289,28.5842913 220.766357,29.5244528 220.388488,30.3971517 C220.010618,31.2698507 219.488806,32.0255786 218.823036,32.6643582 C218.157265,33.3031378 217.370049,33.8069565 216.461362,34.1758292 C215.552676,34.5447019 214.576527,34.7291355 213.532887,34.7291355 C212.489247,34.7291355 211.513099,34.5447019 210.604412,34.1758292 C209.695726,33.8069565 208.908509,33.3031378 208.242739,32.6643582 C207.576968,32.0255786 207.055156,31.2698507 206.677287,30.3971517 C206.299417,29.5244528 206.110485,28.5842913 206.110485,27.5766389 C206.110485,26.5509928 206.299417,25.6018345 206.677287,24.7291355 C207.055156,23.8564366 207.576968,23.1007087 208.242739,22.4619291 C208.908509,21.8231494 209.695726,21.3238292 210.604412,20.9639534 C211.513099,20.6040775 212.489247,20.4241423 213.532887,20.4241423 L213.532887,20.4241423 Z M213.532887,32.0030897 C214.144676,32.0030897 214.711472,31.8906301 215.233292,31.6657077 C215.755112,31.4407853 216.200452,31.1258987 216.569324,30.7210384 C216.938197,30.3161781 217.226093,29.8483465 217.433022,29.3175296 C217.639951,28.7867127 217.743413,28.2064216 217.743413,27.5766389 C217.743413,26.9468562 217.639951,26.3575683 217.433022,25.8087577 C217.226093,25.259947 216.938197,24.7876171 216.569324,24.3917536 C216.200452,23.9958902 215.755112,23.6855019 215.233292,23.4605795 C214.711472,23.2356571 214.144676,23.1231976 213.532887,23.1231976 C212.903104,23.1231976 212.33181,23.2356571 211.818987,23.4605795 C211.306164,23.6855019 210.865323,23.9958902 210.49645,24.3917536 C210.127577,24.7876171 209.839681,25.259947 209.632752,25.8087577 C209.425824,26.3575683 209.322361,26.9468562 209.322361,27.5766389 C209.322361,28.2064216 209.425824,28.7867127 209.632752,29.3175296 C209.839681,29.8483465 210.127577,30.3161781 210.49645,30.7210384 C210.865323,31.1258987 211.306164,31.4407853 211.818987,31.6657077 C212.33181,31.8906301 212.903104,32.0030897 213.532887,32.0030897 L213.532887,32.0030897 Z" id="logo"></path>
            </g>
        </g>
    </g>
</svg>